<?xml version="1.0" encoding="utf-8"?>
<!-- Generator: Adobe Illustrator 15.1.0, SVG Export Plug-In . SVG Version: 6.00 Build 0)  -->
<!DOCTYPE svg PUBLIC "-//W3C//DTD SVG 1.1//EN" "http://www.w3.org/Graphics/SVG/1.1/DTD/svg11.dtd">
<svg version="1.1" id="Layer_1" xmlns="http://www.w3.org/2000/svg" xmlns:xlink="http://www.w3.org/1999/xlink" x="0px" y="0px"
	 width="841.89px" height="595.28px" viewBox="0 0 841.89 595.28" enable-background="new 0 0 841.89 595.28" xml:space="preserve">
<path fill="#2E3192" d="M292.884,317.563c0,2.924-0.665,5.295-1.484,5.295h-88.676c-0.82,0-1.484-2.371-1.484-5.295v-81.248
	c0-2.924,0.665-5.294,1.484-5.294h88.676c0.82,0,1.484,2.37,1.484,5.294V317.563z"/>
<path fill="#F7941E" d="M264.943,252.329c0-12.874-8.5-11-8.5-11l-35.75-0.096c0,0-9.25-2.305-9.25,9.333v44.763c0,0-0.875,9,9.25,9
	h44.25l18.25,8.5c2.25-3.75,0-8.5,0-8.5l-8.5-5.25l8.5-3.75c2.5-4,0-9.5,0-9.5l-18.25,9.5h-35.25c-9.75,1.25-9.14-5.49-9.14-5.49
	l0.14-22.635v-8.625c0,0-0.125-8.013,7-8.013h23.5c0,0,5.676-0.363,5.463,7.137l-0.213,26.376c0,0,3.834,4.499,8.5,0.333V252.329z"
	/>
<g>
	<path fill="#2E3192" d="M303.749,277.628l-2.45,7.421h-3.15l8.016-23.592h3.675l8.051,23.592h-3.255l-2.52-7.421H303.749z
		 M311.484,275.248l-2.345-6.791c-0.49-1.54-0.84-2.94-1.19-4.305h-0.105c-0.315,1.365-0.7,2.835-1.155,4.27l-2.31,6.826H311.484z"
		/>
	<path fill="#2E3192" d="M321.144,272.693c0-1.785-0.035-3.185-0.14-4.585h2.73l0.175,2.766h0.07c0.84-1.575,2.8-3.15,5.601-3.15
		c2.345,0,5.985,1.4,5.985,7.21v10.116h-3.08v-9.766c0-2.73-1.015-5.041-3.92-5.041c-1.995,0-3.57,1.435-4.13,3.15
		c-0.14,0.385-0.21,0.945-0.21,1.435v10.221h-3.081V272.693z"/>
	<path fill="#2E3192" d="M342.039,264.992c-1.155,0-1.925-0.91-1.925-1.995s0.805-1.96,1.995-1.96c1.19,0,1.96,0.875,1.96,1.96
		s-0.77,1.995-1.995,1.995H342.039z M340.568,285.049v-16.942h3.081v16.942H340.568z"/>
	<path fill="#2E3192" d="M352.468,264.047v4.061h4.411v2.345h-4.411v9.136c0,2.1,0.595,3.29,2.31,3.29c0.84,0,1.331-0.07,1.786-0.21
		l0.14,2.345c-0.595,0.21-1.54,0.42-2.73,0.42c-1.436,0-2.59-0.49-3.326-1.295c-0.84-0.945-1.19-2.45-1.19-4.445v-9.241h-2.625
		v-2.345h2.625v-3.115L352.468,264.047z"/>
	<path fill="#2E3192" d="M372.279,280.989c0,1.47,0.07,2.905,0.245,4.061h-2.765l-0.28-2.135h-0.105
		c-0.91,1.33-2.766,2.521-5.181,2.521c-3.431,0-5.181-2.416-5.181-4.866c0-4.095,3.641-6.335,10.186-6.301v-0.35
		c0-1.4-0.385-3.955-3.851-3.92c-1.61,0-3.255,0.455-4.445,1.26l-0.7-2.065c1.4-0.875,3.466-1.47,5.601-1.47
		c5.216,0,6.476,3.535,6.476,6.931V280.989z M369.269,276.403c-3.36-0.07-7.176,0.525-7.176,3.815c0,2.03,1.33,2.94,2.87,2.94
		c2.24,0,3.675-1.4,4.166-2.835c0.105-0.315,0.14-0.665,0.14-0.98V276.403z"/>
	<path fill="#2E3192" d="M377.212,260.197h3.081v10.571h0.07c0.49-0.875,1.26-1.68,2.205-2.17c0.91-0.56,1.996-0.875,3.15-0.875
		c2.275,0,5.916,1.4,5.916,7.246v10.081h-3.08v-9.731c0-2.765-1.015-5.041-3.92-5.041c-1.995,0-3.535,1.4-4.13,3.08
		c-0.175,0.42-0.21,0.875-0.21,1.47v10.221h-3.081V260.197z"/>
	<path fill="#2E3192" d="M397.48,261.457h7.774v10.431h0.103c0.772-0.91,1.596-1.75,2.419-2.59l7.826-7.841h9.679L413.8,271.503
		l12.047,13.546h-9.113l-8.546-10.186l-2.935,2.485v7.701h-7.774V261.457z"/>
	<path fill="#2E3192" d="M449.839,280.919c0,1.61,0.103,3.185,0.411,4.13h-7.053l-0.463-1.715h-0.154
		c-1.648,1.365-4.223,2.101-7.208,2.101c-5.097,0-8.134-2.521-8.134-5.251c0-4.445,5.869-6.545,14.775-6.545v-0.21
		c0-0.91-0.721-2.206-4.582-2.206c-2.574,0-5.303,0.595-6.951,1.26l-1.441-3.395c1.751-0.666,5.2-1.541,9.782-1.541
		c8.392,0,11.018,3.36,11.018,7.386V280.919z M442.271,276.963c-4.118,0-7.311,0.665-7.311,2.695c0,1.365,1.339,2.03,3.089,2.03
		c1.905,0,3.553-0.875,4.067-1.96c0.103-0.28,0.154-0.595,0.154-0.91V276.963z"/>
	<path fill="#2E3192" d="M460.91,267.933l2.059,7.036c0.463,1.75,0.979,3.64,1.391,5.601h0.154c0.463-1.925,1.235-3.885,1.802-5.565
		l2.677-7.071h6.178l2.523,6.826c0.721,1.96,1.39,3.85,1.854,5.811h0.103c0.36-1.925,0.875-3.885,1.493-5.846l2.111-6.791h7.67
		l-7.723,17.117h-7.311l-2.367-5.986c-0.67-1.68-1.133-3.22-1.648-5.355h-0.103c-0.464,2.135-0.978,3.746-1.597,5.321l-2.521,6.021
		h-7.363l-7.361-17.117H460.91z"/>
	<path fill="#2E3192" d="M498.441,265.692c-2.625,0-4.324-1.26-4.324-2.835c0-1.61,1.75-2.835,4.428-2.835
		c2.677,0,4.324,1.226,4.376,2.835c0,1.575-1.699,2.835-4.428,2.835H498.441z M494.58,285.049v-17.117h7.826v17.117H494.58z"/>
	<path fill="#2E3192" d="M508.738,273.568c0-2.521-0.052-4.166-0.207-5.636h6.693l0.309,3.185h0.207
		c1.287-2.52,4.324-3.57,6.795-3.57c0.721,0,1.082,0.035,1.647,0.105v5.006c-0.669-0.07-1.287-0.14-2.162-0.14
		c-2.884,0-4.839,1.015-5.354,2.695c-0.103,0.35-0.154,0.735-0.154,1.19v8.646h-7.825L508.738,273.568z"/>
	<path fill="#2E3192" d="M548.639,280.919c0,1.61,0.103,3.185,0.411,4.13h-7.054l-0.463-1.715h-0.154
		c-1.647,1.365-4.222,2.101-7.207,2.101c-5.098,0-8.135-2.521-8.135-5.251c0-4.445,5.869-6.545,14.775-6.545v-0.21
		c0-0.91-0.721-2.206-4.582-2.206c-2.574,0-5.303,0.595-6.95,1.26l-1.441-3.395c1.751-0.666,5.2-1.541,9.782-1.541
		c8.391,0,11.018,3.36,11.018,7.386V280.919z M541.07,276.963c-4.119,0-7.311,0.665-7.311,2.695c0,1.365,1.338,2.03,3.089,2.03
		c1.905,0,3.552-0.875,4.067-1.96c0.103-0.28,0.154-0.595,0.154-0.91V276.963z"/>
</g>
</svg>
